<?xml version="1.0" standalone="no"?>
<!DOCTYPE svg PUBLIC "-//W3C//DTD SVG 20010904//EN"
 "http://www.w3.org/TR/2001/REC-SVG-20010904/DTD/svg10.dtd">
<svg version="1.0" xmlns="http://www.w3.org/2000/svg"
 width="406.000000pt" height="406.000000pt" viewBox="0 0 406.000000 406.000000"
 preserveAspectRatio="xMidYMid meet">
<metadata>
Created by potrace 1.14, written by Peter Selinger 2001-2017
</metadata>
<g transform="translate(0.000000,406.000000) scale(0.100000,-0.100000)"
fill="#000000" stroke="none">
<path d="M1624 3674 c-16 -20 -39 -55 -51 -77 -12 -22 -26 -43 -31 -46 -5 -3
-17 -21 -27 -38 -19 -33 -20 -33 -93 -33 -65 0 -73 -2 -62 -15 10 -12 7 -17
-14 -26 -14 -7 -26 -17 -26 -24 0 -6 -16 -17 -35 -25 -19 -8 -35 -17 -35 -22
0 -4 -7 -8 -15 -8 -8 0 -15 4 -15 9 0 5 7 14 15 21 8 7 15 18 14 24 0 7 -2 6
-6 -1 -2 -7 -11 -13 -18 -13 -8 0 -18 -7 -23 -16 -7 -12 -28 -17 -81 -20 -96
-5 -125 -19 -129 -64 -4 -41 19 -180 29 -180 13 0 31 -70 25 -95 -5 -18 -1
-25 14 -30 11 -3 20 -15 20 -25 0 -20 38 -52 52 -44 4 3 8 -2 8 -10 0 -9 5
-16 11 -16 16 0 3 -59 -17 -81 -9 -10 -14 -23 -12 -29 1 -5 14 8 28 30 22 36
47 56 56 47 7 -7 -68 -142 -92 -166 -32 -34 -41 -20 -15 25 12 20 19 39 16 43
-8 8 -34 -26 -46 -60 -8 -21 -20 -27 -67 -37 -32 -7 -70 -12 -84 -12 -14 0
-43 -7 -64 -16 -29 -12 -58 -15 -109 -12 -82 6 -95 3 -95 -22 0 -10 -5 -22
-10 -25 -5 -3 -10 -14 -10 -23 0 -9 -16 -33 -36 -52 -39 -39 -50 -67 -39 -108
3 -15 9 -42 12 -59 3 -18 9 -33 14 -33 12 0 11 52 -1 84 -5 14 -7 32 -4 40 10
25 53 -5 64 -45 6 -20 17 -42 26 -49 8 -7 13 -19 10 -25 -2 -7 -1 -16 4 -21
15 -16 15 -104 1 -114 -17 -10 -7 -40 13 -40 10 0 22 -24 36 -69 11 -37 20
-73 20 -80 0 -6 4 -19 9 -29 5 -9 14 -42 21 -72 6 -30 16 -66 20 -80 5 -14 11
-36 14 -50 2 -14 13 -50 25 -80 21 -54 28 -96 13 -74 -4 6 -18 14 -32 17 -28
7 -60 56 -60 91 0 23 -47 76 -67 76 -6 0 -21 15 -33 34 -15 26 -20 47 -17 81
2 34 -1 49 -11 52 -7 3 -18 16 -23 29 -6 16 -16 24 -33 24 -13 0 -29 7 -36 15
-9 11 -17 12 -32 4 -16 -9 -19 -17 -14 -42 8 -45 -11 -286 -29 -354 -21 -82
-20 -236 2 -258 29 -30 146 -3 156 35 3 10 0 38 -5 62 -22 100 -22 158 1 158
14 0 159 -150 176 -183 59 -113 58 -112 106 -111 44 1 59 4 90 18 11 5 58 -35
168 -142 84 -82 174 -167 201 -188 27 -22 49 -42 50 -46 0 -5 -7 -16 -15 -25
-68 -80 -88 -110 -132 -198 -51 -105 -95 -218 -114 -295 -34 -143 -47 -228
-54 -337 l-7 -123 109 0 110 0 -2 55 c-1 30 0 55 4 55 3 0 7 29 7 65 1 36 6
71 11 78 9 10 21 87 27 162 0 11 4 25 7 30 3 6 12 39 20 74 7 35 19 66 26 68
7 3 13 16 13 30 0 14 9 36 20 50 11 14 20 32 20 39 0 8 4 14 9 14 5 0 12 12
15 27 4 16 21 47 39 69 17 23 37 50 43 60 10 17 15 17 60 5 27 -7 60 -14 74
-15 14 -1 41 -7 60 -14 20 -7 51 -11 70 -9 19 2 40 -1 47 -6 10 -7 97 -9 336
-5 15 1 27 4 27 8 0 4 37 10 81 14 45 4 93 13 108 20 14 7 31 11 38 9 6 -2 14
1 18 6 3 6 15 11 26 11 10 0 19 5 19 10 0 6 9 10 19 10 10 0 21 6 24 14 3 8
17 20 31 28 73 39 126 75 167 115 41 40 49 44 68 34 12 -7 26 -9 31 -6 6 4 22
-3 36 -14 15 -12 32 -21 40 -21 7 0 26 -11 42 -25 17 -14 33 -25 36 -25 15 0
133 -130 150 -166 10 -21 25 -50 33 -64 32 -56 83 -165 83 -179 0 -7 11 -48
25 -90 13 -42 42 -148 64 -236 22 -88 45 -173 52 -190 11 -29 13 -37 17 -77 1
-11 10 -18 23 -18 15 0 19 5 16 18 -3 9 -10 40 -17 67 -9 42 -59 241 -103 413
-6 23 -14 42 -19 42 -4 0 -8 11 -8 23 0 43 -78 239 -101 253 -5 3 -9 14 -9 24
0 10 -5 20 -11 22 -7 2 -10 10 -8 17 6 16 63 -69 74 -109 4 -14 18 -44 31 -68
26 -43 78 -193 94 -266 5 -23 18 -77 30 -121 12 -44 25 -98 29 -120 4 -22 16
-75 26 -117 l19 -78 124 0 c124 0 124 0 118 23 -12 40 -27 131 -26 164 0 18
-10 65 -24 105 -13 40 -27 98 -31 128 -7 55 -29 110 -43 110 -4 0 -13 36 -19
79 -7 44 -16 88 -22 98 -5 10 -17 37 -26 60 -10 23 -26 50 -36 59 -11 10 -19
25 -19 34 0 35 -66 140 -87 140 -5 0 -22 14 -38 30 -20 21 -35 28 -48 24 -13
-4 -20 0 -24 15 -3 12 -10 21 -15 21 -6 0 -22 8 -36 19 -15 10 -45 21 -66 25
-22 4 -49 14 -60 22 -11 8 -32 14 -46 14 -14 0 -30 4 -35 9 -14 14 -95 26 -95
14 0 -5 -16 -7 -35 -5 -31 4 -35 7 -29 26 6 24 52 66 72 66 6 0 12 5 12 10 0
6 16 33 35 61 19 28 35 57 35 64 0 7 18 33 40 58 22 25 40 50 40 56 0 17 33
81 42 81 4 0 21 27 38 60 17 33 27 60 23 60 -4 0 1 6 10 13 27 20 57 225 37
252 -9 12 -20 65 -24 120 -5 60 -17 129 -26 140 -4 6 -10 24 -14 40 -10 41
-29 85 -38 85 -4 0 -5 6 -2 14 7 18 -28 96 -43 96 -7 0 -13 9 -13 20 0 11 -9
28 -20 37 -11 10 -20 21 -20 26 0 15 -112 127 -127 127 -7 0 -22 13 -34 30
-12 16 -25 27 -29 25 -4 -2 -17 31 -30 73 -13 42 -27 81 -32 86 -4 6 -8 19 -8
31 0 12 -4 25 -8 31 -4 5 -16 34 -26 64 -21 66 -48 120 -58 120 -5 0 -7 3 -6
8 1 4 -14 42 -35 85 -20 43 -37 82 -37 87 0 6 -5 10 -12 10 -6 0 -20 7 -29 16
-10 9 -45 22 -76 28 -54 11 -58 14 -55 38 2 14 12 43 23 64 10 21 19 43 19 49
0 37 -125 121 -162 109 -12 -4 -18 -2 -14 4 3 5 -8 12 -24 16 -23 4 -36 0 -50
-14 -11 -11 -26 -20 -34 -20 -8 0 -17 -7 -20 -16 -3 -8 -10 -13 -15 -9 -11 6
-3 36 13 47 6 4 8 10 4 13 -8 8 -49 -15 -66 -38 -7 -9 -39 -35 -71 -56 -50
-33 -66 -38 -115 -38 -31 0 -59 -3 -63 -6 -3 -4 -12 -7 -20 -7 -9 0 -13 15
-13 51 0 58 -29 109 -61 109 -11 0 -29 4 -39 10 -13 7 -27 5 -50 -7 -30 -15
-33 -15 -42 1 -13 23 -21 20 -54 -20z m501 -104 c7 -12 -33 -49 -52 -50 -21 0
-15 31 7 37 11 3 20 9 20 14 0 12 17 11 25 -1z m270 -884 c17 -7 44 -19 60
-26 17 -7 55 -12 85 -12 30 1 60 -4 67 -9 7 -6 17 -8 23 -4 5 3 10 2 10 -4 0
-5 10 -13 23 -17 12 -4 34 -16 49 -28 15 -11 47 -34 72 -49 29 -18 46 -36 46
-48 0 -26 52 -127 57 -111 3 6 11 12 20 12 13 0 13 -2 0 -15 -13 -13 -13 -21
-1 -67 7 -29 14 -63 14 -75 0 -12 9 -31 21 -41 17 -16 18 -20 5 -25 -12 -5
-13 -13 -6 -37 5 -17 6 -38 3 -46 -3 -8 -1 -14 3 -14 5 0 10 -44 12 -99 3 -88
0 -108 -27 -191 -17 -51 -40 -104 -51 -118 -11 -13 -20 -33 -20 -43 0 -11 -4
-19 -10 -19 -11 0 -70 -99 -70 -118 0 -11 -45 -87 -60 -102 -3 -3 -11 -17 -19
-32 -7 -14 -22 -29 -32 -31 -11 -3 -19 -14 -19 -26 0 -12 -4 -21 -10 -21 -5 0
-17 -16 -26 -35 -9 -19 -23 -35 -31 -35 -16 0 -52 -38 -53 -56 0 -11 -84 -94
-94 -94 -4 0 -17 -9 -29 -20 -12 -11 -28 -20 -37 -18 -8 1 -29 -5 -45 -14 -89
-47 -292 -68 -464 -48 -107 12 -181 35 -181 54 0 6 15 18 32 26 39 19 61 50
48 70 -7 12 -29 15 -97 14 -48 0 -100 -4 -115 -8 -22 -7 -33 -2 -70 32 -23 21
-48 37 -54 35 -6 -2 -17 8 -24 23 -8 14 -25 30 -37 35 -13 5 -23 14 -23 22 0
7 -14 21 -32 32 -38 22 -88 71 -88 86 0 6 -4 8 -9 5 -5 -3 -14 8 -21 24 -7 17
-19 30 -26 30 -8 0 -25 24 -39 54 -14 30 -29 57 -34 60 -5 3 -12 18 -16 33 -3
15 -20 42 -36 60 -20 23 -29 44 -29 68 0 22 -6 38 -17 44 -16 9 -16 12 -3 21
13 8 13 10 -2 10 -12 0 -21 14 -29 43 -25 94 -35 119 -52 128 -19 11 -23 44
-7 54 6 4 8 11 4 16 -3 5 -8 7 -12 5 -4 -2 -5 20 -4 50 3 41 9 57 23 64 17 10
19 7 19 -24 0 -19 -6 -36 -12 -39 -10 -4 -10 -7 -1 -18 10 -10 16 -9 31 4 23
21 26 21 103 -4 89 -28 121 -18 182 60 26 33 47 64 47 70 0 6 7 11 15 11 8 0
15 7 15 15 0 8 9 23 21 34 11 10 30 32 42 49 74 101 111 144 133 154 13 6 24
17 24 24 0 16 62 64 83 64 9 0 19 -5 22 -11 4 -6 14 -8 22 -5 8 3 22 2 31 -3
9 -4 34 -11 56 -14 35 -6 41 -3 69 28 37 42 59 43 125 10 27 -14 73 -28 102
-31 29 -3 70 -12 92 -20 95 -33 139 -10 141 75 1 30 7 53 15 56 6 2 12 20 12
38 0 19 3 37 7 41 8 8 43 1 88 -18z m-1513 -258 c-7 -7 -12 -8 -12 -2 0 14 12
26 19 19 2 -3 -1 -11 -7 -17z m2118 -205 c0 -5 5 -35 10 -68 39 -226 43 -275
20 -275 -13 0 -21 37 -35 160 -2 25 -7 56 -9 70 -17 99 -17 120 -2 120 9 0 16
-3 16 -7z m2 -440 c-4 -55 -42 -171 -66 -203 -11 -15 -20 -30 -64 -109 -32
-59 -56 -92 -177 -248 -53 -69 -168 -168 -183 -159 -5 3 24 40 65 82 40 43 73
81 73 86 0 4 10 18 23 32 40 44 52 60 73 102 12 23 31 56 43 72 11 17 21 34
21 39 0 4 16 32 35 60 19 29 35 57 35 64 0 6 8 23 18 37 26 38 80 151 88 184
11 47 21 22 16 -39z"/>
<path d="M1245 1900 c-9 -15 -16 -110 -8 -110 21 1 30 20 31 68 0 48 -9 65
-23 42z"/>
<path d="M1302 1885 c-7 -14 -12 -46 -12 -70 l0 -45 63 7 c80 8 95 19 61 45
-15 12 -23 26 -20 35 8 21 -4 39 -15 22 -7 -11 -12 -9 -24 9 -21 29 -39 28
-53 -3z"/>
<path d="M2179 1789 c-9 -4 -26 -7 -38 -4 -16 3 -22 -2 -27 -22 -10 -39 16
-53 101 -53 63 0 75 3 99 25 27 25 27 45 0 45 -8 0 -14 4 -14 9 0 11 -101 12
-121 0z"/>
<path d="M1237 1744 c-14 -14 -7 -25 13 -22 12 2 21 8 21 13 0 12 -24 18 -34
9z"/>
<path d="M1558 1573 c-27 -3 -38 -9 -38 -20 0 -14 -2 -14 -19 1 -16 14 -20 15
-30 2 -14 -17 -7 -48 14 -66 21 -18 18 -30 -5 -25 -23 4 -26 -10 -6 -30 27
-28 89 -65 107 -65 11 0 19 -4 19 -9 0 -5 21 -23 47 -40 46 -30 76 -37 120
-25 38 10 16 22 -31 17 -35 -4 -53 0 -80 17 -20 12 -36 25 -36 30 0 5 -8 11
-19 15 -23 7 -81 61 -81 75 0 13 35 -4 47 -23 4 -7 24 -20 43 -29 122 -58 136
-63 198 -63 41 0 65 -5 71 -13 7 -11 9 -11 14 2 4 11 19 16 46 16 47 0 91 18
91 37 0 7 5 13 10 13 6 0 10 4 10 10 0 13 -66 30 -116 30 -58 0 -134 25 -151
49 -8 12 -25 21 -39 21 -13 0 -24 5 -24 10 0 6 -9 10 -19 10 -11 0 -35 14 -53
30 -18 17 -37 29 -43 28 -5 -1 -27 -3 -47 -5z"/>
<path d="M1810 1310 c-11 -7 -7 -10 17 -10 17 0 35 5 38 10 8 13 -35 13 -55 0z"/>
<path d="M1300 3455 c-14 -8 -20 -14 -14 -15 5 0 19 7 30 15 24 18 16 19 -16
0z"/>
<path d="M1260 3419 c0 -5 5 -7 10 -4 6 3 10 8 10 11 0 2 -4 4 -10 4 -5 0 -10
-5 -10 -11z"/>
<path d="M0 2176 c0 -73 0 -74 30 -84 38 -14 86 -90 101 -161 6 -32 9 -96 6
-155 -7 -119 -9 -135 -32 -207 -41 -127 -75 -187 -96 -173 -5 3 -9 -20 -9 -51
0 -55 0 -55 28 -49 15 3 56 20 91 37 84 42 131 111 161 237 8 30 19 62 26 70
7 8 15 38 19 65 4 28 11 55 15 60 4 6 8 51 9 100 1 50 3 106 6 125 3 25 -4 53
-25 95 -16 33 -31 73 -34 88 -10 58 -21 62 -193 72 l-103 6 0 -75z"/>
<path d="M1 1066 c-1 -50 2 -67 10 -59 7 7 7 29 1 69 l-10 59 -1 -69z"/>
<path d="M745 905 c-5 -2 -26 -6 -46 -9 -26 -5 -54 -24 -99 -66 -35 -33 -66
-60 -70 -60 -21 0 -130 -123 -155 -174 -28 -57 -29 -67 -31 -210 -2 -166 7
-250 35 -311 11 -22 22 -48 25 -57 4 -14 17 -18 61 -18 30 0 55 4 55 8 0 5 -7
31 -15 58 -8 27 -15 61 -15 77 0 15 -4 27 -9 27 -5 0 -9 43 -10 96 -1 53 -4
101 -7 105 -3 5 2 43 11 85 10 41 15 78 12 81 -9 8 17 54 50 88 71 73 230 204
249 205 6 0 19 8 28 19 16 18 16 20 -10 40 -26 20 -37 23 -59 16z"/>
<path d="M0 218 l0 -218 55 0 55 0 0 43 c0 24 7 59 16 76 9 18 17 54 17 81 1
43 -4 54 -49 109 -27 33 -53 61 -57 61 -5 0 -6 4 -3 9 3 5 -3 20 -14 32 -19
24 -19 24 -20 -193z"/>
<path d="M845 353 c-11 -2 -30 -6 -43 -9 -12 -2 -45 -27 -72 -54 -40 -40 -53
-60 -59 -97 -7 -35 -6 -50 3 -58 24 -19 63 -80 70 -107 6 -26 10 -28 56 -28
58 0 68 20 20 40 -57 24 -84 84 -62 139 20 51 62 101 83 101 11 0 29 -17 45
-42 26 -41 84 -195 84 -223 0 -11 12 -15 44 -15 57 0 59 9 28 125 -26 97 -42
134 -66 154 -9 8 -16 22 -16 32 0 33 -59 54 -115 42z"/>
</g>
</svg>
